<?xml version="1.0" encoding="UTF-8" standalone="no"?><!DOCTYPE svg PUBLIC "-//W3C//DTD SVG 1.1//EN" "http://www.w3.org/Graphics/SVG/1.1/DTD/svg11.dtd"><svg width="100%" height="100%" viewBox="0 0 60 60" version="1.1" xmlns="http://www.w3.org/2000/svg" xmlns:xlink="http://www.w3.org/1999/xlink" xml:space="preserve" xmlns:serif="http://www.serif.com/" style="fill-rule:evenodd;clip-rule:evenodd;stroke-linejoin:round;stroke-miterlimit:1.41421;"><path d="M6,14c-0.009,0 -0.019,0 -0.028,0c-1.098,0 -2,0.903 -2,2c0,1.097 0.902,2 2,2c0.009,0 0.019,0 0.028,0l48,0c0.009,0 0.019,0 0.028,0c1.098,0 2,-0.903 2,-2c0,-1.097 -0.902,-2 -2,-2c-0.009,0 -0.019,0 -0.028,0l-48,0Zm0,14c-0.009,0 -0.019,0 -0.028,0c-1.098,0 -2,0.903 -2,2c0,1.097 0.902,2 2,2c0.009,0 0.019,0 0.028,0l48,0c0.009,0 0.019,0 0.028,0c1.098,0 2,-0.903 2,-2c0,-1.097 -0.902,-2 -2,-2c-0.009,0 -0.019,0 -0.028,0l-48,0Zm0,14c-0.009,0 -0.019,0 -0.028,0c-1.098,0 -2,0.903 -2,2c0,1.097 0.902,2 2,2c0.009,0 0.019,0 0.028,0l48,0c0.009,0 0.019,0 0.028,0c1.098,0 2,-0.903 2,-2c0,-1.097 -0.902,-2 -2,-2c-0.009,0 -0.019,0 -0.028,0l-48,0Z" style="fill:#124d87;fill-rule:nonzero;"/></svg>